<?xml version="1.0" standalone="no"?>
<!DOCTYPE svg PUBLIC "-//W3C//DTD SVG 20010904//EN"
 "http://www.w3.org/TR/2001/REC-SVG-20010904/DTD/svg10.dtd">
<svg version="1.0" xmlns="http://www.w3.org/2000/svg"
 width="1024.000000pt" height="1024.000000pt" viewBox="0 0 1024.000000 1024.000000"
 preserveAspectRatio="xMidYMid meet">

<g transform="translate(0.000000,1024.000000) scale(0.100000,-0.100000)"
fill="#000000" stroke="none">
<path d="M5313 8511 c7 -32 65 -143 251 -475 64 -115 156 -282 203 -370 92
-171 197 -355 360 -631 55 -93 123 -208 150 -255 27 -47 61 -91 75 -99 24 -14
31 -11 154 64 393 239 466 288 545 366 l61 60 -39 35 c-21 19 -55 43 -75 54
-40 21 -58 61 -39 83 8 10 4 20 -17 38 -36 34 -137 109 -145 109 -4 0 -41 35
-84 78 -43 43 -98 94 -123 115 -45 36 -106 85 -125 100 -30 23 -94 64 -208
133 -71 43 -133 87 -139 97 -5 10 -103 80 -216 154 -471 310 -522 343 -551
358 -41 21 -44 19 -38 -14z m1047 -883 c62 -68 156 -167 207 -221 52 -54 93
-100 91 -102 -1 -1 -32 -17 -67 -35 l-65 -32 -20 28 c-69 95 -294 334 -316
334 -8 1 -25 9 -38 20 l-22 18 30 46 c31 45 54 65 76 66 6 0 62 -55 124 -122z"/>
<path d="M5854 8271 c4 -6 22 -18 39 -27 30 -14 31 -14 12 1 -30 25 -59 39
-51 26z"/>
<path d="M4580 8187 c-25 -14 -79 -43 -120 -66 -41 -22 -82 -43 -90 -46 -8 -3
-32 -15 -53 -26 -58 -31 -55 -16 7 32 51 41 70 69 46 69 -15 0 -86 -37 -227
-118 -67 -39 -132 -73 -144 -77 -71 -23 -539 -297 -518 -304 6 -2 52 18 102
43 125 62 154 60 65 -5 -40 -28 -42 -43 -3 -15 33 22 262 136 275 136 6 0 -7
-21 -30 -47 -28 -32 -40 -53 -36 -67 3 -10 0 -28 -5 -39 -20 -35 -140 -141
-277 -242 -31 -23 -44 -41 -53 -75 -6 -25 -20 -59 -30 -76 -17 -28 -17 -32 -3
-52 20 -29 9 -45 -26 -37 -36 8 -42 -2 -42 -70 -1 -41 -4 -55 -15 -55 -12 0
-12 -3 -1 -18 16 -22 152 -148 230 -213 58 -48 59 -49 89 -34 35 18 176 193
343 425 66 91 143 197 171 235 29 39 95 131 148 205 53 74 141 196 195 270
114 157 173 250 166 261 -2 4 -13 6 -24 3 -11 -2 -30 -6 -41 -9 -14 -3 -27 3
-38 16 -16 20 -16 20 -61 -4z m-11 -159 c14 -24 14 -28 -3 -47 -11 -12 -29
-21 -42 -21 -24 0 -54 33 -54 60 0 47 74 53 99 8z m-143 -40 c4 -13 20 -42 37
-65 29 -41 29 -43 13 -68 -22 -34 -52 -33 -59 3 -3 15 -13 48 -22 74 -10 26
-15 54 -11 63 8 23 34 18 42 -7z m-352 -279 c14 -17 26 -38 26 -48 0 -10 -32
-38 -80 -71 -54 -35 -116 -92 -188 -169 -59 -64 -112 -116 -119 -115 -7 0 -35
1 -63 2 -29 1 -50 7 -50 13 0 6 38 47 85 92 49 47 85 89 85 100 0 34 226 227
265 227 7 0 25 -14 39 -31z"/>
<path d="M5975 8197 c52 -35 227 -128 231 -124 7 7 -224 137 -243 137 -4 0 1
-6 12 -13z"/>
<path d="M4858 8088 c-51 -57 -141 -159 -200 -228 -114 -135 -156 -178 -145
-147 14 38 -12 12 -93 -94 -47 -61 -161 -212 -255 -334 -93 -123 -218 -285
-276 -361 -125 -163 -131 -174 -118 -197 6 -9 51 -50 102 -91 51 -41 123 -99
161 -130 38 -31 75 -56 81 -56 7 0 24 -9 38 -20 17 -13 28 -17 32 -10 5 8 15
6 31 -4 13 -9 26 -16 29 -16 12 0 3 34 -16 61 -33 47 -22 55 69 54 57 -1 88
-7 106 -18 30 -20 86 -23 87 -4 1 6 2 21 3 32 0 11 12 23 28 29 24 9 34 2 118
-73 73 -65 158 -121 185 -121 2 0 9 24 16 53 l13 52 11 -65 10 -65 68 -7 c37
-3 73 -10 80 -15 7 -5 49 -10 93 -12 l81 -2 -4 24 c-6 28 7 40 32 31 11 -5 15
-15 12 -30 -5 -28 25 -43 48 -24 8 6 18 9 23 6 11 -7 130 40 153 60 8 8 23 14
33 14 17 0 38 38 29 53 -3 5 4 18 15 30 13 14 21 39 23 67 2 25 5 47 9 50 3 3
19 21 35 39 l30 35 -28 -22 c-72 -54 -216 -67 -300 -27 -93 44 -169 146 -201
270 -65 258 16 538 183 629 69 37 167 46 242 21 82 -27 167 -117 202 -213 32
-87 52 -241 42 -332 -10 -90 -49 -208 -86 -259 -17 -24 -29 -45 -27 -47 2 -2
28 33 57 77 29 43 57 82 61 84 5 3 5 18 0 34 -10 36 8 65 36 59 10 -2 28 4 38
14 10 9 22 15 26 13 4 -3 18 10 31 27 13 18 35 43 48 55 19 18 22 29 17 55 -3
18 -6 39 -6 46 2 44 6 59 13 55 19 -12 -17 43 -41 63 -16 13 -26 33 -28 53 -1
18 -48 113 -117 234 -63 111 -122 217 -132 235 -9 19 -19 32 -21 29 -6 -6 34
-86 65 -132 12 -16 21 -34 21 -40 0 -12 -39 36 -40 48 0 5 -36 62 -80 126 -65
95 -85 117 -103 116 -44 -4 -77 18 -135 88 -48 59 -65 72 -88 72 -16 0 -44 4
-61 7 -32 7 -33 7 -39 -32 -10 -64 -25 -52 -40 32 -3 21 -12 42 -19 48 -7 6
-41 9 -76 8 -58 -3 -65 -1 -74 20 -5 12 -13 22 -16 22 -4 0 -49 -46 -101 -102z
m102 -51 c0 -11 -39 -37 -55 -37 -13 0 -3 30 13 39 24 14 42 13 42 -2z m-240
-187 c0 -5 -2 -10 -4 -10 -3 0 -8 5 -11 10 -3 6 -1 10 4 10 6 0 11 -4 11 -10z
m145 -331 c51 -14 129 -92 138 -139 20 -98 -1 -195 -61 -282 -37 -54 -158
-180 -261 -270 l-74 -65 124 4 c152 5 160 7 198 38 22 19 36 24 55 19 15 -3
29 -10 32 -15 3 -5 -4 -52 -17 -104 l-21 -95 -299 0 -299 0 -1 50 c-1 28 -2
54 -3 59 -1 4 33 35 74 68 92 73 216 204 281 297 98 140 104 264 13 302 -63
26 -156 -19 -205 -100 l-18 -29 -53 51 -53 51 45 46 c48 50 109 90 168 111 45
16 183 18 237 3z m365 -1108 c0 -6 -4 -13 -10 -16 -5 -3 -10 1 -10 9 0 9 5 16
10 16 6 0 10 -4 10 -9z"/>
<path d="M6250 8046 c0 -3 9 -10 20 -16 11 -6 20 -8 20 -6 0 3 -9 10 -20 16
-11 6 -20 8 -20 6z"/>
<path d="M5405 7410 c-68 -27 -94 -108 -102 -305 -10 -246 38 -395 127 -395
27 0 68 36 90 79 39 75 53 356 24 483 -23 101 -84 161 -139 138z"/>
<path d="M2250 7201 c0 -15 76 -123 146 -206 118 -141 370 -459 399 -502 26
-40 27 -45 14 -75 -17 -41 -180 -283 -305 -453 -157 -212 -195 -275 -192 -309
4 -39 41 -63 213 -140 72 -32 174 -78 228 -103 71 -33 105 -43 123 -39 15 4
65 9 112 12 47 3 89 7 94 10 10 7 10 108 -2 204 -5 41 -21 230 -35 420 -14
190 -34 424 -45 520 -12 96 -25 215 -30 264 -5 48 -10 90 -12 91 -2 1 -27 15
-57 30 -29 14 -101 55 -160 89 -141 84 -324 176 -348 176 -3 0 1 -7 8 -16 12
-15 11 -16 -11 -9 -14 4 -42 16 -62 26 -39 20 -78 25 -78 10z m345 -241 c0 -7
-6 -15 -12 -17 -8 -3 -13 4 -13 17 0 13 5 20 13 18 6 -3 12 -11 12 -18z m180
-26 c38 -17 54 -30 52 -42 -4 -26 -17 -43 -29 -36 -7 4 -8 -4 -4 -23 6 -24 2
-32 -23 -51 -40 -29 -58 -28 -112 12 -42 31 -115 124 -104 134 9 10 66 -19
115 -57 65 -51 83 -55 60 -10 -8 15 -7 19 5 19 32 0 13 18 -30 29 -50 12 -53
17 -27 37 24 19 36 17 97 -12z"/>
<path d="M7225 7141 c-103 -56 -423 -252 -762 -466 -68 -42 -73 -48 -73 -80 0
-47 192 -579 304 -840 48 -111 64 -140 53 -95 -4 14 -4 42 0 63 5 35 7 36 19
18 21 -29 73 -164 68 -173 -3 -5 -14 2 -24 14 -24 28 -25 14 -2 -29 30 -56
142 -231 155 -241 7 -5 38 -9 69 -9 55 1 57 2 71 37 l15 35 1 -41 c2 -66 11
-99 33 -113 11 -7 21 -11 23 -9 2 2 20 109 40 238 19 129 42 276 50 325 20
123 50 344 69 500 38 316 96 827 96 846 0 16 -5 19 -20 15 -11 -3 -29 -9 -40
-12 -15 -4 -24 2 -38 25 -9 17 -21 31 -27 31 -5 0 -41 -17 -80 -39z m-86 -413
c0 -18 -24 -138 -52 -267 l-52 -234 -54 -19 c-30 -10 -56 -17 -57 -15 -3 3 45
242 84 416 28 124 28 125 62 137 59 21 70 18 69 -18z"/>
<path d="M3142 7100 c-13 -16 -29 -30 -36 -30 -7 0 -19 -7 -26 -15 -9 -11 -16
-12 -25 -5 -21 18 -25 -12 -15 -132 5 -62 14 -167 20 -233 5 -66 14 -178 20
-250 13 -160 48 -513 58 -578 13 -86 27 -48 23 63 -4 129 11 126 33 -5 13 -81
33 -156 36 -130 0 6 2 47 3 92 2 46 7 86 11 90 3 4 26 8 50 8 42 2 44 1 55
-35 6 -21 11 -57 11 -81 0 -37 2 -41 14 -29 7 8 30 59 50 114 20 54 44 112 53
129 8 17 24 58 34 91 9 34 27 86 39 116 41 107 110 374 110 425 0 30 -11 44
-117 138 -137 121 -330 277 -343 277 -4 0 -15 2 -22 5 -8 3 -23 -7 -36 -25z
m151 -722 l16 -23 1 25 c2 57 19 -10 26 -99 l7 -92 -39 3 -39 3 -3 103 c-1 57
1 102 6 102 5 0 17 -10 25 -22z m-123 -305 c-1 -31 -3 -35 -11 -20 -6 9 -7 26
-4 37 10 30 15 24 15 -17z"/>
<path d="M1959 7051 c-32 -35 -87 -118 -137 -207 -46 -82 -108 -192 -139 -244
-140 -239 -206 -366 -207 -399 -1 -43 23 -62 256 -208 213 -133 305 -183 337
-183 31 1 61 21 61 42 0 26 156 61 169 39 6 -9 22 -10 56 -4 48 8 49 9 162
158 173 228 263 364 263 401 0 33 -31 73 -302 398 -106 125 -158 180 -183 190
-19 8 -35 19 -35 24 0 12 -74 52 -97 52 -10 0 -24 -5 -29 -10 -8 -8 -25 -8
-55 -1 -64 15 -62 16 -120 -48z m229 -287 c113 -47 145 -162 65 -239 -20 -19
-34 -36 -32 -38 2 -1 26 -13 54 -27 87 -44 120 -143 75 -230 -39 -77 -127
-120 -244 -120 -132 0 -213 62 -224 170 -5 56 12 94 62 137 l34 31 -23 10
c-35 16 -76 77 -82 121 -7 50 26 122 69 152 65 47 177 62 246 33z"/>
<path d="M2055 6691 c-33 -14 -49 -40 -48 -78 1 -44 25 -70 76 -84 35 -9 42
-8 59 9 11 10 22 37 25 59 4 32 1 44 -18 66 -27 29 -64 40 -94 28z"/>
<path d="M2041 6377 c-33 -53 -28 -102 14 -144 33 -33 39 -35 82 -30 67 7 105
60 89 122 -8 32 -69 72 -122 81 -39 6 -42 4 -63 -29z"/>
<path d="M1507 6846 c-111 -106 -215 -208 -231 -225 -44 -46 -11 -39 49 10 27
22 58 45 69 51 20 11 20 11 2 -18 l-19 -29 34 30 c19 16 50 45 70 63 20 19 45
32 54 30 14 -2 -1 -24 -64 -92 -87 -96 -97 -115 -87 -175 5 -34 2 -42 -44 -93
-28 -31 -50 -65 -50 -76 0 -12 -14 -29 -35 -42 -28 -18 -33 -25 -25 -40 13
-24 25 -28 124 -36 61 -5 86 -3 86 4 0 7 47 90 105 186 114 190 315 572 315
600 0 23 -29 14 -97 -30 -55 -35 -69 -41 -58 -24 9 14 -8 13 -23 -2 -26 -26
-20 1 8 37 27 34 39 65 25 65 -3 0 -96 -87 -208 -194z m143 61 c0 -2 -10 -12
-22 -23 l-23 -19 19 23 c18 21 26 27 26 19z"/>
<path d="M7957 6689 c7 -7 15 -10 18 -7 3 3 -2 9 -12 12 -14 6 -15 5 -6 -5z"/>
<path d="M3706 6663 c-3 -10 -19 -75 -35 -144 -16 -70 -48 -191 -71 -270 -124
-434 -138 -500 -105 -513 26 -10 39 3 74 69 18 36 38 65 45 65 37 -1 44 -30
31 -147 -8 -80 0 -91 33 -46 24 33 42 23 42 -22 0 -31 3 -35 38 -44 103 -27
96 -29 278 63 94 47 177 86 186 86 19 0 75 24 104 45 18 13 23 13 40 1 15 -12
17 -18 8 -33 -11 -18 -21 -20 -96 -22 -28 -1 -38 -6 -43 -22 -14 -42 50 -52
115 -19 46 23 63 50 54 84 -5 23 12 61 43 94 40 42 -9 108 -192 258 -170 138
-406 354 -404 368 4 37 -7 58 -56 109 -58 59 -80 69 -89 40z"/>
<path d="M7572 6648 c2 -18 18 -27 93 -49 110 -34 120 -34 122 -8 1 15 -1 18
-10 10 -9 -7 -16 -5 -24 8 -7 11 -36 22 -82 31 -40 7 -74 17 -77 22 -10 17
-25 7 -22 -14z"/>
<path d="M8084 6663 c14 -4 17 -11 13 -36 -5 -28 -5 -29 5 -10 13 28 4 53 -19
52 -16 -1 -16 -2 1 -6z"/>
<path d="M7491 6651 c-25 -7 -48 -58 -33 -72 4 -4 39 -16 79 -28 40 -12 80
-24 89 -28 14 -5 16 -2 12 15 -4 14 -1 22 11 24 10 2 -8 17 -46 37 -34 18 -64
39 -67 47 -6 15 -9 15 -45 5z"/>
<path d="M7910 6616 c0 -32 50 -79 67 -62 3 3 13 1 22 -4 10 -5 23 -5 31 0 9
6 2 11 -27 19 -22 6 -52 20 -67 32 -14 11 -26 18 -26 15z"/>
<path d="M6265 6563 c-22 -16 -74 -48 -115 -73 -111 -64 -140 -88 -140 -113 0
-19 -1 -20 -16 -5 -15 14 -27 9 -142 -65 -70 -44 -206 -128 -302 -187 -96 -59
-215 -133 -265 -164 -49 -31 -128 -80 -174 -109 -46 -29 -103 -70 -126 -92
-36 -34 -44 -48 -50 -93 -6 -47 -4 -56 15 -77 11 -12 54 -33 93 -45 40 -12 95
-30 124 -41 154 -55 822 -253 830 -245 2 2 -43 23 -99 47 -108 44 -151 72
-126 81 7 3 87 -10 178 -28 211 -42 202 -42 195 -1 -6 31 -4 34 32 53 21 10
41 23 45 28 3 6 44 10 90 10 l84 0 -17 33 c-12 24 -15 42 -9 62 4 15 4 35 -1
44 -10 16 7 57 23 57 5 0 8 10 8 22 0 21 0 21 28 -4 52 -49 112 -41 126 17 6
25 -18 130 -36 151 -5 7 -18 10 -28 7 -14 -4 -20 0 -20 11 0 9 8 16 20 16 24
0 37 25 22 43 -5 6 -12 35 -15 62 -4 28 -9 61 -12 75 -10 42 55 -89 76 -152
29 -91 78 -188 95 -188 11 0 14 6 9 23 -13 41 -183 501 -253 682 -78 201 -81
205 -147 158z m-795 -829 c0 -14 -12 -19 -23 -8 -9 9 4 35 14 28 5 -3 9 -12 9
-20z"/>
<path d="M8305 6580 l-30 -8 27 -1 c15 0 30 4 33 9 3 6 5 9 3 9 -2 -1 -16 -5
-33 -9z"/>
<path d="M8238 6563 c7 -3 16 -2 19 1 4 3 -2 6 -13 5 -11 0 -14 -3 -6 -6z"/>
<path d="M7432 6448 c-39 -317 -82 -654 -92 -713 -5 -27 -12 -77 -15 -110 -4
-33 -13 -111 -21 -173 -8 -62 -14 -125 -14 -139 0 -26 0 -26 36 11 19 20 52
71 71 114 19 42 42 85 51 94 14 16 17 16 42 1 37 -21 97 -114 116 -178 14 -51
11 -94 -10 -146 -7 -15 -1 -15 51 3 32 11 84 22 116 25 47 5 57 3 57 -10 0
-10 -34 -28 -102 -55 -117 -45 -174 -75 -170 -88 2 -9 176 -11 260 -3 l42 4
-6 40 c-3 25 0 57 10 85 8 24 12 49 7 55 -10 14 -31 65 -27 65 2 0 13 -13 23
-30 l19 -30 36 26 c55 40 115 43 183 10 30 -15 70 -46 89 -68 l35 -40 45 26
c24 14 52 26 60 26 30 0 16 -38 -28 -76 -40 -36 -44 -42 -39 -76 3 -25 11 -38
24 -41 22 -6 23 1 9 39 -13 33 -8 39 19 22 22 -13 29 -52 11 -63 -6 -3 -5 -15
2 -31 18 -39 28 -15 38 97 11 135 30 282 36 288 2 2 5 -22 5 -55 2 -83 3 -75
-10 -223 -11 -124 -10 -153 5 -138 3 3 10 57 15 119 5 62 13 145 18 183 6 39
15 126 21 195 5 69 18 203 27 297 13 130 14 178 5 195 -6 13 -20 45 -32 73
-34 81 -39 84 -205 147 -112 42 -299 108 -307 108 -3 0 -4 -8 -2 -17 3 -10 -9
-34 -27 -56 -24 -30 -36 -36 -53 -31 -28 9 -27 6 -14 41 10 26 9 35 -6 58 -13
20 -15 29 -6 35 13 8 -10 20 -40 20 -24 0 -27 -15 -45 -223 -8 -93 -19 -225
-25 -295 -17 -198 -19 -210 -45 -241 -33 -39 -74 -45 -133 -20 -26 11 -36 17
-22 14 14 -3 37 -8 52 -11 35 -8 79 10 97 38 16 25 33 179 56 508 11 156 21
242 30 256 8 12 11 25 7 28 -12 12 -96 48 -192 81 -52 18 -102 36 -111 39 -14
6 -18 -7 -27 -86z m295 -71 c-26 -40 -38 -130 -55 -421 -17 -269 -18 -279 -41
-297 -13 -11 -33 -19 -45 -19 -20 0 -19 1 4 13 38 19 47 48 54 175 4 64 11
164 16 222 5 58 10 147 12 197 2 86 0 95 -22 118 -22 23 -22 25 -5 19 11 -4
25 -11 30 -15 6 -4 22 1 35 11 33 25 35 25 17 -3z m608 -257 c13 -21 46 -153
39 -159 -3 -3 -26 17 -50 44 -35 40 -44 58 -44 88 0 33 3 37 24 37 14 0 28 -5
31 -10z m-205 -140 c54 -28 105 -81 137 -143 37 -72 39 -184 5 -240 -30 -47
-69 -68 -130 -69 -168 -4 -313 250 -227 397 42 73 134 96 215 55z m-311 -620
c11 -24 11 -24 -3 -6 -9 11 -16 24 -16 30 0 12 5 7 19 -24z"/>
<path d="M8258 6473 c12 -2 30 -2 40 0 9 3 -1 5 -23 4 -22 0 -30 -2 -17 -4z"/>
<path d="M9263 6396 c-62 -27 -92 -46 -93 -57 0 -21 -24 -31 -39 -16 -8 8 -24
7 -61 -2 -27 -7 -54 -10 -60 -6 -5 3 -36 -9 -68 -29 -51 -31 -205 -106 -303
-149 -31 -13 -41 -26 -74 -104 -35 -80 -39 -99 -47 -218 -5 -71 -8 -147 -6
-167 2 -21 0 -38 -4 -38 -5 0 -8 -24 -7 -52 1 -52 1 -52 11 -20 7 20 17 32 29
32 20 0 27 -18 31 -72 2 -36 3 -37 21 -20 18 16 20 16 31 0 11 -15 33 -24 69
-27 4 -1 7 -8 7 -17 0 -9 17 5 39 33 54 68 71 81 117 89 37 5 43 3 67 -26 24
-28 27 -40 27 -105 l0 -74 28 1 c15 1 38 -4 50 -11 24 -13 50 1 109 55 14 13
34 24 44 24 11 0 19 3 19 8 0 16 52 31 76 21 14 -5 27 -9 29 -9 14 0 47 304
34 308 -6 3 -6 8 -1 15 5 7 17 118 26 247 9 129 19 241 22 249 3 8 0 18 -7 21
-8 6 -8 13 0 28 6 11 11 46 11 76 0 69 -2 69 -127 12z m91 -58 c-27 -87 -194
-220 -194 -155 0 23 94 131 135 154 52 29 68 30 59 1z m-177 -307 c29 -43 30
-97 2 -186 -16 -53 -31 -78 -69 -116 -42 -42 -55 -49 -87 -49 -53 1 -83 27
-93 81 -21 113 50 266 140 302 8 3 31 5 50 4 27 -2 39 -9 57 -36z m-272 -325
c0 -31 -50 -84 -128 -137 -87 -59 -121 -36 -49 33 26 26 168 128 177 128 1 0
1 -11 0 -24z m235 -141 c0 -28 -25 -44 -42 -27 -7 7 -6 17 1 31 16 30 41 27
41 -4z"/>
<path d="M1041 6156 c-7 -13 -10 -29 -7 -35 5 -7 -6 -10 -31 -8 -33 2 -38 -1
-36 -18 2 -22 145 -275 373 -660 130 -218 214 -338 197 -279 -3 11 -9 36 -13
57 -6 35 -5 37 20 37 15 0 46 -9 68 -20 23 -11 59 -20 79 -20 21 0 45 -7 54
-16 14 -15 18 -14 42 2 15 9 80 66 144 126 65 59 119 108 122 108 2 0 -64 -69
-147 -152 -83 -84 -173 -178 -200 -208 l-49 -55 39 -9 c46 -11 492 7 714 29
80 8 226 22 325 30 99 9 211 23 249 30 67 14 127 41 132 60 8 26 -780 455
-836 455 -12 0 -30 -5 -41 -10 -16 -9 -19 -7 -19 8 0 10 -12 30 -27 44 -35 32
-241 166 -478 310 -99 61 -204 128 -234 151 -52 38 -60 41 -165 53 -145 17
-190 18 -183 2 3 -7 8 -21 12 -30 8 -20 -37 -53 -60 -44 -22 8 -18 33 6 39 29
8 21 41 -12 45 -18 2 -29 -4 -38 -22z m372 -181 c39 -27 50 -53 45 -106 l-3
-34 -40 54 c-22 30 -48 67 -58 82 -18 28 -18 29 0 29 10 0 35 -11 56 -25z
m241 -230 c40 -17 40 -18 26 -46 -21 -39 -83 -17 -96 34 -5 22 -3 27 14 27 11
0 36 -7 56 -15z m156 -55 c69 -35 68 -47 -10 -141 -39 -46 -70 -89 -70 -95 0
-6 7 -17 15 -24 22 -18 18 -40 -7 -40 -13 0 -29 -4 -37 -9 -15 -10 -83 18 -96
40 -4 6 2 24 14 40 11 15 21 37 21 49 0 11 7 20 15 20 21 0 71 72 90 131 9 27
19 49 21 49 3 0 22 -9 44 -20z m894 -405 c64 -15 81 -26 73 -47 -7 -19 -111
-50 -187 -56 -56 -4 -68 -1 -83 15 -17 20 -16 20 43 26 122 13 142 29 60 46
-63 14 -63 14 -54 -1 5 -8 2 -9 -10 -5 -10 4 -23 7 -29 8 -7 0 4 6 23 13 47
18 93 18 164 1z m-279 -35 c8 -13 -5 -13 -25 0 -13 8 -13 10 2 10 9 0 20 -4
23 -10z"/>
<path d="M4585 5439 c-494 -157 -806 -262 -876 -295 -39 -19 -75 -34 -81 -34
-5 0 -16 -7 -24 -15 -25 -24 14 -71 52 -64 23 4 64 -2 64 -9 0 -5 -9 -19 -20
-32 -33 -39 -26 -65 28 -96 26 -16 62 -34 79 -40 18 -6 63 -29 100 -51 38 -22
90 -53 116 -68 27 -15 58 -38 70 -51 11 -13 26 -24 33 -24 8 0 28 -13 46 -28
30 -26 68 -47 68 -37 0 2 -39 35 -87 74 -49 39 -105 85 -126 102 -21 17 -36
33 -34 35 5 6 178 -57 260 -95 60 -27 250 -151 372 -243 62 -47 87 -48 116 -5
33 47 82 97 97 97 6 0 12 9 12 20 0 11 4 20 8 20 5 0 17 -9 27 -20 10 -11 25
-20 33 -20 12 0 14 11 8 63 -20 182 -20 199 -1 196 10 -3 25 -25 37 -57 11
-28 29 -57 40 -63 20 -11 20 -9 14 47 -13 109 -113 726 -122 757 -3 11 -15 17
-32 16 -15 -1 -139 -37 -277 -80z m205 -308 c14 -28 12 -57 -5 -71 -33 -27
-64 47 -33 78 17 17 26 15 38 -7z m-189 -62 c21 -17 61 -69 90 -117 28 -48 75
-127 104 -177 52 -87 81 -181 49 -154 -8 7 -29 9 -48 6 -39 -6 -52 4 -86 73
-42 84 -153 241 -183 258 -32 19 -74 89 -60 103 7 7 74 35 92 38 2 1 21 -13
42 -30z"/>
<path d="M4944 5506 c-6 -17 1 -79 47 -386 63 -420 92 -580 108 -580 4 0 13
-19 20 -42 23 -78 96 -168 137 -168 2 0 4 30 4 68 l0 67 73 -2 c39 -2 85 -3
100 -4 15 -1 36 6 46 15 22 20 35 21 27 1 -3 -8 0 -15 7 -15 7 0 22 -8 35 -18
20 -16 29 -41 31 -91 1 -9 9 -11 29 -6 15 4 43 11 62 15 l35 8 -32 -26 c-18
-15 -85 -59 -150 -98 -70 -43 -119 -79 -122 -90 -2 -14 13 -55 35 -92 5 -8
484 253 649 353 81 49 332 191 555 313 85 46 161 89 168 95 18 14 -80 74 -145
87 -58 12 -73 26 -88 79 l-11 36 -184 58 c-102 32 -284 89 -405 127 -121 38
-384 120 -585 183 -410 128 -437 135 -446 113z m1547 -789 c-6 -8 -72 -49
-146 -93 -75 -43 -165 -96 -200 -116 -66 -39 -98 -49 -71 -23 8 8 18 15 23 15
5 0 35 22 68 50 33 27 65 50 71 50 5 0 23 14 39 30 16 17 35 30 43 30 7 0 20
6 27 14 8 8 40 22 72 31 32 9 63 19 68 20 17 6 18 5 6 -8z m-515 -305 c-2 -4
-26 -23 -52 -42 -26 -18 -44 -28 -40 -21 8 12 85 71 93 71 2 0 2 -3 -1 -8z"/>
<path d="M8507 5391 c-13 -22 -17 -55 -19 -135 -1 -59 -5 -109 -10 -112 -13
-8 -9 -21 7 -21 8 0 15 5 15 11 1 20 30 179 34 183 4 4 36 -12 66 -32 8 -6 27
-12 41 -13 23 -3 27 1 32 35 9 50 9 63 0 61 -12 -4 -91 30 -98 42 -13 21 -51
10 -68 -19z"/>
<path d="M8910 5269 c-7 -13 -21 -34 -32 -45 -11 -12 -16 -24 -11 -27 16 -9
108 -4 115 7 12 18 9 36 -6 36 -8 0 -23 12 -34 27 l-19 27 -13 -25z"/>
<path d="M7276 5239 c-11 -58 -8 -71 13 -59 27 14 34 13 27 -5 -3 -9 3 -19 15
-26 24 -12 38 -4 24 15 -6 7 -24 34 -41 59 l-32 47 -6 -31z"/>
<path d="M7266 5153 c-3 -4 -6 -18 -6 -33 0 -14 -5 -31 -11 -37 -9 -9 -6 -21
11 -47 21 -35 45 -50 34 -22 -9 23 10 26 62 10 27 -9 82 -18 121 -20 53 -3 87
-11 124 -29 28 -15 56 -24 62 -22 7 3 -3 11 -22 17 -52 19 -231 109 -262 131
-15 10 -37 19 -48 19 -12 0 -30 9 -40 19 -11 11 -22 17 -25 14z m34 -67 c0 -3
-4 -8 -10 -11 -5 -3 -10 -1 -10 4 0 6 5 11 10 11 6 0 10 -2 10 -4z"/>
<path d="M3514 4937 c-11 -7 -20 -17 -19 -24 0 -16 146 -105 404 -248 189
-105 286 -147 267 -117 -7 12 -243 169 -401 267 -53 33 -120 75 -148 94 -61
39 -76 43 -103 28z"/>
<path d="M4256 4469 c3 -5 19 -16 35 -25 30 -15 30 -15 19 5 -6 12 -14 21 -18
22 -4 0 -15 2 -25 4 -9 2 -15 -1 -11 -6z"/>
</g>
</svg>
